<?xml version="1.0" encoding="UTF-8" standalone="no"?>
<svg
   width="628.84039"
   height="193.16405"
   viewBox="0 0 628.84039 193.16405"
   version="1.1"
   id="svg32"
   sodipodi:docname="h.svg"
   xmlns:inkscape="http://www.inkscape.org/namespaces/inkscape"
   xmlns:sodipodi="http://sodipodi.sourceforge.net/DTD/sodipodi-0.dtd"
   xmlns="http://www.w3.org/2000/svg"
   xmlns:svg="http://www.w3.org/2000/svg">
  <defs
     id="defs36" />
  <sodipodi:namedview
     id="namedview34"
     pagecolor="#ffffff"
     bordercolor="#000000"
     borderopacity="0.25"
     inkscape:showpageshadow="2"
     inkscape:pageopacity="0.0"
     inkscape:pagecheckerboard="0"
     inkscape:deskcolor="#d1d1d1" />
  <path
     fill-rule="nonzero"
     fill="#003366"
     fill-opacity="1"
     d="m 250.7857,125.0625 c 0,-10.50781 -7.1211,-16.38281 -21.90235,-16.38281 h -21.37109 v 32.94534 c 5.51953,0.8906 12.10937,1.4257 16.91797,1.4257 11.7539,0 26.35547,-3.3828 26.35547,-17.98823 M 207.51226,94.078121 h 21.90234 c 6.23438,0 13.17969,-4.09765 13.17969,-13.71093 0,-11.57813 -11.39844,-14.42579 -20.125,-14.42579 -4.62891,0 -9.96875,0.35547 -14.95703,1.2461 z m 44.33984,6.589849 c 13,4.80468 21.01563,14.24609 21.01563,28.66797 0,26.71479 -27.78125,31.69919 -48.61719,31.69919 -12.46484,0 -25.64453,-1.4219 -37.92969,-3.9179 V 51.695311 c 12.10938,-2.49219 23.50391,-3.5625 34.54688,-3.5625 20.30078,0 42.91797,6.23438 42.91797,29.02734 0,11.04297 -5.51953,19.41016 -11.9336,23.507819"
     id="path2" />
  <path
     fill-rule="nonzero"
     fill="#003366"
     fill-opacity="1"
     d="M 306.1646,158.89843 H 285.50835 V 76.980471 H 306.1646 Z M 295.83648,65.406251 c -6.76563,0 -12.64453,-4.27344 -12.64453,-12.46485 0,-8.1914 5.8789,-12.64453 12.64453,-12.64453 6.76953,0 12.82031,4.45313 12.82031,12.64453 0,8.19141 -6.05078,12.46485 -12.82031,12.46485"
     id="path4" />
  <path
     fill-rule="nonzero"
     fill="#003366"
     fill-opacity="1"
     d="m 386.83648,118.11719 c 0,-19.054689 -10.50781,-27.066409 -24.39844,-27.066409 -14.06641,0 -24.39844,8.01172 -24.39844,27.066409 0,18.87894 10.33203,26.89064 24.39844,26.89064 13.89063,0 24.39844,-8.0117 24.39844,-26.89064 m 19.94531,-0.17579 c 0,26.17583 -16.20703,42.91793 -44.34375,42.91793 -28.49219,0 -44.51953,-16.207 -44.51953,-42.91793 0,-26.355459 16.02734,-42.917959 44.51953,-42.917959 27.78125,0 44.34375,15.84765 44.34375,42.917959"
     id="path6" />
  <path
     fill-rule="nonzero"
     fill="#0099cc"
     fill-opacity="1"
     d="m 485.66851,125.0625 c 0,-10.50781 -7.125,-16.38281 -21.90625,-16.38281 h -21.36719 v 32.94534 c 5.51953,0.8906 12.10938,1.4257 16.91797,1.4257 11.75391,0 26.35547,-3.3828 26.35547,-17.98823 M 442.39507,94.078121 h 21.90235 c 6.23437,0 13.17968,-4.09765 13.17968,-13.71093 0,-11.57813 -11.39843,-14.42579 -20.125,-14.42579 -4.6289,0 -9.97265,0.35547 -14.95703,1.2461 z m 44.33985,6.589849 c 13,4.80468 21.01562,14.24609 21.01562,28.66797 0,26.71479 -27.78125,31.69919 -48.61719,31.69919 -12.46484,0 -25.64453,-1.4219 -37.92968,-3.9179 V 51.695311 c 12.10937,-2.49219 23.5039,-3.5625 34.54687,-3.5625 20.30078,0 42.91797,6.23438 42.91797,29.02734 0,11.04297 -5.51953,19.41016 -11.93359,23.507819"
     id="path8" />
  <path
     fill-rule="nonzero"
     fill="#0099cc"
     fill-opacity="1"
     d="m 571.50054,121.85937 c -2.67187,-0.35937 -8.37109,-1.24609 -14.42578,-1.24609 -11.21875,0 -19.41016,2.84766 -19.41016,12.82031 0,10.14844 8.54688,12.82034 18.69922,12.82034 5.69922,0 10.32813,-0.8907 15.13672,-1.6016 z m 20.65625,-14.60547 v 49.68753 c -14.06641,2.6679 -29.02734,4.4492 -41.49219,3.7383 -20.30078,-1.0704 -34.1914,-8.7266 -33.83593,-27.60161 0,-18.69922 15.13671,-25.10937 32.05468,-26 9.26172,-0.17968 17.45313,0.71094 22.61719,1.60157 v -2.31641 c 0,-12.464839 -6.41016,-15.492189 -17.62891,-15.492189 -7.30078,0 -19.41406,0.89063 -24.7539,1.78125 v -15.67187 c 11.39453,-1.2461 25.28515,-2.3125 35.4375,-1.78125 16.20312,0.89062 27.60156,6.05468 27.60156,32.054679"
     id="path10" />
  <path
     fill-rule="nonzero"
     fill="#0099cc"
     fill-opacity="1"
     d="M 628.84038,158.89843 H 608.35992 V 43.148441 h 20.48046 z m 0,0"
     id="path12" />
  <path
     fill-rule="nonzero"
     fill="#0099cc"
     fill-opacity="1"
     d="m 112.81695,74.941401 c 23.76172,20.54688 47.83984,28.519539 53.45312,30.179689 l -0.14453,-27.675779 c -0.0742,-13.89844 -7.48047,-26.72656 -19.48047,-33.74219 l -44.23828,-25.84765 c -5.917965,-3.45703 -12.515615,-5.23047 -19.136715,-5.34766 1.58594,7.26563 10.80469,46.22266 29.546875,62.43359"
     id="path14" />
  <path
     fill-rule="nonzero"
     fill="#0099cc"
     fill-opacity="1"
     d="m 52.133355,75.140621 c 16.36328,-16.49218 28.41797,-55.4414 30.55078,-62.65625 -6.82421,-0.0195 -13.65234,1.73828 -19.76953,5.26953 l -43.25781,24.97266 C 7.4263248,49.789061 -0.07367522,62.863281 5.4478323e-4,76.980471 L 0.14507478,105.26172 C 5.0903848,104 30.813045,96.632811 52.133355,75.140621"
     id="path16" />
  <path
     fill-rule="nonzero"
     fill="#0099cc"
     fill-opacity="1"
     d="M 59.602105,145.04683 C 40.586485,126.02734 5.9849248,108.72656 0.14898478,105.8789 l 0.11719,22.33594 c 0.0742,13.90239 7.48046002,26.73049 19.48046022,33.74219 l 44.23438,25.8477 c 5.875,3.4336 12.41797,5.2031 18.98828,5.3437 -0.83984,-5.9258 -5.24609,-29.9805 -23.36719,-48.1016"
     id="path18" />
  <path
     fill-rule="nonzero"
     fill="#0099cc"
     fill-opacity="1"
     d="m 105.32476,144.76953 c -17.789055,17.8711 -21.421875,42.4023 -22.062495,48.3906 6.97266,0.098 13.96484,-1.6445 20.214835,-5.25 l 43.25782,-24.9765 c 12.22656,-7.0586 19.73046,-20.1329 19.65625,-34.25394 l -0.11719,-22.69141 c -6.77344,2.9375 -40.39844,18.13281 -60.94922,38.78125"
     id="path20" />
  <path
     fill-rule="nonzero"
     fill="#0099cc"
     fill-opacity="1"
     d="m 545.80132,19.359371 c -5.21875,0 -9.75,-3.29687 -9.75,-9.61328 0,-6.3125 4.53125,-9.74609 9.75,-9.74609 5.21485,0 9.88281,3.43359 9.88281,9.74609 0,6.31641 -4.66796,9.61328 -9.88281,9.61328"
     id="path22" />
  <path
     fill-rule="nonzero"
     fill="#0099cc"
     fill-opacity="1"
     d="m 488.71929,17.632811 c -4.24219,0 -7.92578,-2.67969 -7.92578,-7.81641 0,-5.13281 3.68359,-7.92578 7.92578,-7.92578 4.24219,0 8.03906,2.79297 8.03906,7.92578 0,5.13672 -3.79687,7.81641 -8.03906,7.81641"
     id="path24" />
  <path
     fill-rule="nonzero"
     fill="#0099cc"
     fill-opacity="1"
     d="m 363.05523,66.835941 c -3.37891,0 -6.3125,-2.13672 -6.3125,-6.23047 0,-4.08985 2.93359,-6.31641 6.3125,-6.31641 3.38281,0 6.40625,2.22656 6.40625,6.31641 0,4.09375 -3.02344,6.23047 -6.40625,6.23047"
     id="path26" />
  <path
     fill-rule="nonzero"
     fill="#0099cc"
     fill-opacity="1"
     d="m 515.7232,42.804691 c -3.38282,0 -6.32032,-2.13672 -6.32032,-6.23047 0,-4.08985 2.9375,-6.31641 6.32032,-6.31641 3.3789,0 6.40234,2.22656 6.40234,6.31641 0,4.09375 -3.02344,6.23047 -6.40234,6.23047"
     id="path28" />
  <path
     fill-rule="nonzero"
     fill="#0099cc"
     fill-opacity="1"
     d="m 407.27398,46.957031 c -5.21485,0 -9.7461,-3.29297 -9.7461,-9.60938 0,-6.3164 4.53125,-9.74609 9.7461,-9.74609 5.21875,0 9.88672,3.42969 9.88672,9.74609 0,6.31641 -4.66797,9.60938 -9.88672,9.60938"
     id="path30" />
</svg>
