<?xml version="1.0" encoding="UTF-8"?>
<svg xmlns="http://www.w3.org/2000/svg" xmlns:xlink="http://www.w3.org/1999/xlink" width="246" height="246" viewBox="406 740 246 246">
<path fill-rule="nonzero" fill="rgb(0%, 19.999695%, 39.99939%)" fill-opacity="1" d="M 330.308594 1126.355469 C 330.308594 1112.300781 320.78125 1104.445312 301.015625 1104.445312 L 272.433594 1104.445312 L 272.433594 1148.503906 C 279.816406 1149.695312 288.628906 1150.410156 295.058594 1150.410156 C 310.78125 1150.410156 330.308594 1145.882812 330.308594 1126.355469 M 272.433594 1084.914062 L 301.730469 1084.914062 C 310.0625 1084.914062 319.351562 1079.4375 319.351562 1066.578125 C 319.351562 1051.09375 304.109375 1047.285156 292.441406 1047.285156 C 286.25 1047.285156 279.105469 1047.761719 272.433594 1048.953125 Z M 331.738281 1093.726562 C 349.121094 1100.15625 359.839844 1112.78125 359.839844 1132.070312 C 359.839844 1167.792969 322.6875 1174.460938 294.824219 1174.460938 C 278.152344 1174.460938 260.527344 1172.558594 244.09375 1169.222656 L 244.09375 1028.234375 C 260.289062 1024.898438 275.53125 1023.46875 290.296875 1023.46875 C 317.449219 1023.46875 347.695312 1031.804688 347.695312 1062.289062 C 347.695312 1077.054688 340.308594 1088.25 331.738281 1093.726562 "/>
<path fill-rule="nonzero" fill="rgb(0%, 19.999695%, 39.99939%)" fill-opacity="1" d="M 404.371094 1171.605469 L 376.746094 1171.605469 L 376.746094 1062.050781 L 404.371094 1062.050781 Z M 390.558594 1046.570312 C 381.507812 1046.570312 373.648438 1040.855469 373.648438 1029.898438 C 373.648438 1018.945312 381.507812 1012.988281 390.558594 1012.988281 C 399.609375 1012.988281 407.707031 1018.945312 407.707031 1029.898438 C 407.707031 1040.855469 399.609375 1046.570312 390.558594 1046.570312 "/>
<path fill-rule="nonzero" fill="rgb(0%, 19.999695%, 39.99939%)" fill-opacity="1" d="M 512.257812 1117.066406 C 512.257812 1091.582031 498.207031 1080.867188 479.628906 1080.867188 C 460.816406 1080.867188 447.003906 1091.582031 447.003906 1117.066406 C 447.003906 1142.3125 460.816406 1153.027344 479.628906 1153.027344 C 498.207031 1153.027344 512.257812 1142.3125 512.257812 1117.066406 M 538.929688 1116.828125 C 538.929688 1151.835938 517.257812 1174.226562 479.628906 1174.226562 C 441.523438 1174.226562 420.089844 1152.550781 420.089844 1116.828125 C 420.089844 1081.582031 441.523438 1059.433594 479.628906 1059.433594 C 516.78125 1059.433594 538.929688 1080.628906 538.929688 1116.828125 "/>
<path fill-rule="nonzero" fill="rgb(0%, 60.00061%, 80.000305%)" fill-opacity="1" d="M 644.433594 1126.355469 C 644.433594 1112.300781 634.90625 1104.445312 615.140625 1104.445312 L 586.558594 1104.445312 L 586.558594 1148.503906 C 593.941406 1149.695312 602.753906 1150.410156 609.183594 1150.410156 C 624.902344 1150.410156 644.433594 1145.882812 644.433594 1126.355469 M 586.558594 1084.914062 L 615.855469 1084.914062 C 624.1875 1084.914062 633.476562 1079.4375 633.476562 1066.578125 C 633.476562 1051.09375 618.234375 1047.285156 606.566406 1047.285156 C 600.371094 1047.285156 593.230469 1047.761719 586.558594 1048.953125 Z M 645.863281 1093.726562 C 663.246094 1100.15625 673.964844 1112.78125 673.964844 1132.070312 C 673.964844 1167.792969 636.8125 1174.460938 608.945312 1174.460938 C 592.277344 1174.460938 574.652344 1172.558594 558.21875 1169.222656 L 558.21875 1028.234375 C 574.414062 1024.898438 589.65625 1023.46875 604.421875 1023.46875 C 631.574219 1023.46875 661.820312 1031.804688 661.820312 1062.289062 C 661.820312 1077.054688 654.4375 1088.25 645.863281 1093.726562 "/>
<path fill-rule="nonzero" fill="rgb(0%, 60.00061%, 80.000305%)" fill-opacity="1" d="M 759.222656 1122.066406 C 755.648438 1121.589844 748.027344 1120.402344 739.929688 1120.402344 C 724.925781 1120.402344 713.972656 1124.210938 713.972656 1137.546875 C 713.972656 1151.125 725.402344 1154.695312 738.980469 1154.695312 C 746.601562 1154.695312 752.789062 1153.503906 759.222656 1152.550781 Z M 786.847656 1102.539062 L 786.847656 1168.984375 C 768.035156 1172.558594 748.027344 1174.9375 731.359375 1173.988281 C 704.207031 1172.558594 685.632812 1162.316406 686.105469 1137.070312 C 686.105469 1112.066406 706.351562 1103.492188 728.976562 1102.300781 C 741.359375 1102.0625 752.316406 1103.253906 759.222656 1104.445312 L 759.222656 1101.347656 C 759.222656 1084.675781 750.648438 1080.628906 735.644531 1080.628906 C 725.878906 1080.628906 709.683594 1081.820312 702.539062 1083.007812 L 702.539062 1062.050781 C 717.78125 1060.382812 736.359375 1058.957031 749.933594 1059.671875 C 771.605469 1060.859375 786.847656 1067.765625 786.847656 1102.539062 "/>
<path fill-rule="nonzero" fill="rgb(0%, 60.00061%, 80.000305%)" fill-opacity="1" d="M 835.90625 1171.605469 L 808.519531 1171.605469 L 808.519531 1016.800781 L 835.90625 1016.800781 Z M 835.90625 1171.605469 "/>
<path fill-rule="nonzero" fill="rgb(0%, 60.00061%, 80.000305%)" fill-opacity="1" d="M 578.632812 828.613281 C 610.410156 856.09375 642.613281 866.753906 650.117188 868.976562 L 649.921875 831.960938 C 649.824219 813.371094 639.921875 796.21875 623.871094 786.839844 L 564.710938 752.269531 C 556.796875 747.644531 547.972656 745.273438 539.117188 745.113281 C 541.234375 754.835938 553.566406 806.929688 578.632812 828.613281 "/>
<path fill-rule="nonzero" fill="rgb(0%, 60.00061%, 80.000305%)" fill-opacity="1" d="M 497.472656 828.882812 C 519.355469 806.824219 535.480469 754.730469 538.332031 745.085938 C 529.207031 745.0625 520.074219 747.40625 511.894531 752.132812 L 454.039062 785.53125 C 437.6875 794.972656 427.652344 812.457031 427.753906 831.339844 L 427.949219 869.160156 C 434.5625 867.472656 468.960938 857.621094 497.472656 828.882812 "/>
<path fill-rule="nonzero" fill="rgb(0%, 60.00061%, 80.000305%)" fill-opacity="1" d="M 507.464844 922.371094 C 482.03125 896.933594 435.757812 873.796875 427.953125 869.988281 L 428.109375 899.863281 C 428.207031 918.449219 438.113281 935.605469 454.160156 944.984375 L 513.324219 979.554688 C 521.175781 984.144531 529.925781 986.511719 538.714844 986.703125 C 537.59375 978.773438 531.699219 946.605469 507.464844 922.371094 "/>
<path fill-rule="nonzero" fill="rgb(0%, 60.00061%, 80.000305%)" fill-opacity="1" d="M 568.609375 921.996094 C 544.820312 945.898438 539.960938 978.707031 539.109375 986.714844 C 548.429688 986.847656 557.78125 984.515625 566.136719 979.691406 L 623.992188 946.289062 C 640.34375 936.847656 650.378906 919.363281 650.28125 900.480469 L 650.121094 870.132812 C 641.0625 874.0625 596.09375 894.382812 568.609375 921.996094 "/>
<path fill-rule="nonzero" fill="rgb(0%, 60.00061%, 80.000305%)" fill-opacity="1" d="M 724.851562 984.988281 C 717.875 984.988281 711.816406 980.582031 711.816406 972.132812 C 711.816406 963.6875 717.875 959.097656 724.851562 959.097656 C 731.828125 959.097656 738.070312 963.6875 738.070312 972.132812 C 738.070312 980.582031 731.828125 984.988281 724.851562 984.988281 "/>
<path fill-rule="nonzero" fill="rgb(0%, 60.00061%, 80.000305%)" fill-opacity="1" d="M 648.515625 982.679688 C 642.839844 982.679688 637.914062 979.097656 637.914062 972.226562 C 637.914062 965.359375 642.839844 961.628906 648.515625 961.628906 C 654.1875 961.628906 659.265625 965.359375 659.265625 972.226562 C 659.265625 979.097656 654.1875 982.679688 648.515625 982.679688 "/>
<path fill-rule="nonzero" fill="rgb(0%, 60.00061%, 80.000305%)" fill-opacity="1" d="M 480.457031 1048.480469 C 475.9375 1048.480469 472.011719 1045.625 472.011719 1040.152344 C 472.011719 1034.679688 475.9375 1031.703125 480.457031 1031.703125 C 484.976562 1031.703125 489.023438 1034.679688 489.023438 1040.152344 C 489.023438 1045.625 484.976562 1048.480469 480.457031 1048.480469 "/>
<path fill-rule="nonzero" fill="rgb(0%, 60.00061%, 80.000305%)" fill-opacity="1" d="M 684.625 1016.34375 C 680.105469 1016.34375 676.179688 1013.488281 676.179688 1008.015625 C 676.179688 1002.539062 680.105469 999.566406 684.625 999.566406 C 689.144531 999.566406 693.191406 1002.539062 693.191406 1008.015625 C 693.191406 1013.488281 689.144531 1016.34375 684.625 1016.34375 "/>
<path fill-rule="nonzero" fill="rgb(0%, 60.00061%, 80.000305%)" fill-opacity="1" d="M 539.59375 1021.898438 C 532.617188 1021.898438 526.558594 1017.492188 526.558594 1009.046875 C 526.558594 1000.601562 532.617188 996.011719 539.59375 996.011719 C 546.570312 996.011719 552.8125 1000.601562 552.8125 1009.046875 C 552.8125 1017.492188 546.570312 1021.898438 539.59375 1021.898438 "/>
</svg>
